# xmcd CD database file
#
# Track frame offsets:
#	150
#	13724
#	28408
#	43440
#	59786
#	69603
#	86093
#	105852
#	120591
#	136488
#	161676
#	186573
#	195258
#	213848
#	230488
#	245922
#	259256
#	272878
#	291756
#	302316
#	332465
#
# Disc length: 4732 seconds
#
# Revision: 1
# Processed by: cddbd v1.5.2PL0 Copyright (c) Steve Scherf et al.
# Submitted via: CDex 1.51
#
DISCID=40127a15
DTITLE=History and Tradition of Jazz - Disc2of2
DYEAR=1900
DGENRE=Jazz
TTITLE0=Jazz1- 01 Boplicity - Miles Davis Nonet
TTITLE1=Jazz1- 02 Corcovado - Stan Getz and Joäo Gilberto
TTITLE2=Jazz1- 03 Backstage Sally - Art Blakey and Jazz Messengers
TTITLE3=Jazz1- 04 Boogie Stop Shuffle - Charles Mingus Septet
TTITLE4=Jazz1- 05 All About Rosie - George Russel Orchestra
TTITLE5=Jazz1- 06 Milestones - Bill Evans Trio
TTITLE6=Jazz1- 07 So What - Miles Davis Sextet
TTITLE7=Jazz1- 08 Civilization Day - Ornette Coleman Quartet
TTITLE8=Jazz1- 09 Hat and Beard - Eric Dophy Quintet
TTITLE9=Jazz1- 10 Footprints - Miles Davis Quintet
TTITLE10=Jazz1- 11 Bitches Brew - Miles Davis and His Band
TTITLE11=Jazz1- 12 Black Pearls - John Coltrane Quintet
TTITLE12=Jazz1- 13 Acknowledgement - John Coltrane Quintet
TTITLE13=Jazz1- 14 Palladium - Weather Report
TTITLE14=Jazz1- 15 - Havana Cafe - Paquito D'Rivera
TTITLE15=Jazz1- 16 Mirrors (For Steve Lacy) - Dave Douglas
TTITLE16=Jazz1- 17 Pad Thai - Steve Coleman and Five Elements
TTITLE17=Jazz1- 18 - The Majesty or the Blues - Wynton Marsalis Sextet
TTITLE18=Jazz1- 19 Spiral Dance - Keith Jarret European Quartet
TTITLE19=Jazz1- 20 James - Pat Metheny Group
TTITLE20=Jazz1- 21 Wyrgly - Maria Schneider Orchestra
EXTD=
EXTT0=
EXTT1=
EXTT2=
EXTT3=
EXTT4=
EXTT5=
EXTT6=
EXTT7=
EXTT8=
EXTT9=
EXTT10=
EXTT11=
EXTT12=
EXTT13=
EXTT14=
EXTT15=
EXTT16=
EXTT17=
EXTT18=
EXTT19=
EXTT20=
PLAYORDER=
